<svg width="600" height="400" viewBox="0 0 600 400" xmlns="http://www.w3.org/2000/svg">
  <!-- Background -->
  <rect width="600" height="400" fill="#FFFFFF" />
  
  <!-- Subtle gradient background -->
  <rect width="600" height="400" fill="url(#bg-gradient)" opacity="0.1" />
  
  <!-- Foreground design - Minimalist landscape with sustainable elements -->
  
  <!-- Rolling hills -->
  <path d="M0 250C50 230 100 240 150 220C200 200 250 220 300 240C350 260 400 230 450 240C500 250 550 240 600 260V400H0V250Z" fill="#EFF6E0" />
  
  <!-- Wind turbines -->
  <g transform="translate(100, 210)">
    <line x1="0" y1="0" x2="0" y2="40" stroke="#1A4D2E" stroke-width="2" />
    <circle cx="0" cy="0" r="1.5" fill="#1A4D2E" />
    <line x1="0" y1="0" x2="-12" y2="-8" stroke="#1A4D2E" stroke-width="1.5" />
    <line x1="0" y1="0" x2="12" y2="-8" stroke="#1A4D2E" stroke-width="1.5" />
    <line x1="0" y1="0" x2="0" y2="-12" stroke="#1A4D2E" stroke-width="1.5" />
  </g>
  
  <g transform="translate(150, 190)">
    <line x1="0" y1="0" x2="0" y2="50" stroke="#1A4D2E" stroke-width="2.5" />
    <circle cx="0" cy="0" r="2" fill="#1A4D2E" />
    <line x1="0" y1="0" x2="-15" y2="-10" stroke="#1A4D2E" stroke-width="2" />
    <line x1="0" y1="0" x2="15" y2="-10" stroke="#1A4D2E" stroke-width="2" />
    <line x1="0" y1="0" x2="0" y2="-15" stroke="#1A4D2E" stroke-width="2" />
  </g>
  
  <!-- Solar panels -->
  <g transform="translate(380, 230)">
    <rect x="0" y="0" width="40" height="25" fill="#85B09A" opacity="0.8" />
    <line x1="0" y1="8" x2="40" y2="8" stroke="#4B7B58" stroke-width="0.5" />
    <line x1="0" y1="16" x2="40" y2="16" stroke="#4B7B58" stroke-width="0.5" />
    <line x1="13" y1="0" x2="13" y2="25" stroke="#4B7B58" stroke-width="0.5" />
    <line x1="26" y1="0" x2="26" y2="25" stroke="#4B7B58" stroke-width="0.5" />
    <line x1="20" y1="25" x2="20" y2="35" stroke="#1A4D2E" stroke-width="2" />
  </g>
  
  <g transform="translate(430, 235)">
    <rect x="0" y="0" width="35" height="20" fill="#85B09A" opacity="0.8" />
    <line x1="0" y1="7" x2="35" y2="7" stroke="#4B7B58" stroke-width="0.5" />
    <line x1="0" y1="14" x2="35" y2="14" stroke="#4B7B58" stroke-width="0.5" />
    <line x1="12" y1="0" x2="12" y2="20" stroke="#4B7B58" stroke-width="0.5" />
    <line x1="24" y1="0" x2="24" y2="20" stroke="#4B7B58" stroke-width="0.5" />
    <line x1="17" y1="20" x2="17" y2="30" stroke="#1A4D2E" stroke-width="2" />
  </g>
  
  <!-- Trees -->
  <g transform="translate(250, 230)">
    <line x1="0" y1="0" x2="0" y2="20" stroke="#4B7B58" stroke-width="2" />
    <circle cx="0" cy="-10" r="10" fill="#85B09A" />
  </g>
  
  <g transform="translate(280, 220)">
    <line x1="0" y1="0" x2="0" y2="25" stroke="#4B7B58" stroke-width="2.5" />
    <circle cx="0" cy="-12" r="12" fill="#1A4D2E" opacity="0.8" />
  </g>
  
  <g transform="translate(310, 225)">
    <line x1="0" y1="0" x2="0" y2="22" stroke="#4B7B58" stroke-width="2" />
    <circle cx="0" cy="-10" r="10" fill="#85B09A" />
  </g>
  
  <!-- Carbon molecule - abstract representation -->
  <g transform="translate(300, 100)">
    <circle cx="0" cy="0" r="15" fill="#1A4D2E" opacity="0.1" />
    <circle cx="0" cy="0" r="12" fill="#1A4D2E" opacity="0.2" />
    <circle cx="0" cy="0" r="3" fill="#1A4D2E" />
    
    <circle cx="40" cy="20" r="10" fill="#85B09A" opacity="0.1" />
    <circle cx="40" cy="20" r="8" fill="#85B09A" opacity="0.2" />
    <circle cx="40" cy="20" r="2" fill="#85B09A" />
    
    <circle cx="-40" cy="20" r="10" fill="#85B09A" opacity="0.1" />
    <circle cx="-40" cy="20" r="8" fill="#85B09A" opacity="0.2" />
    <circle cx="-40" cy="20" r="2" fill="#85B09A" />
    
    <line x1="0" y1="0" x2="40" y2="20" stroke="#4B7B58" stroke-width="1" stroke-dasharray="2 2" />
    <line x1="0" y1="0" x2="-40" y2="20" stroke="#4B7B58" stroke-width="1" stroke-dasharray="2 2" />
  </g>
  
  <!-- Sun as an abstract element -->
  <circle cx="500" cy="80" r="30" fill="#EFF6E0" />
  <circle cx="500" cy="80" r="20" fill="#85B09A" opacity="0.3" />
  
  <!-- Definitions -->
  <defs>
    <linearGradient id="bg-gradient" x1="0" y1="0" x2="600" y2="400" gradientUnits="userSpaceOnUse">
      <stop offset="0" stop-color="#1A4D2E" stop-opacity="0.05" />
      <stop offset="1" stop-color="#85B09A" stop-opacity="0.05" />
    </linearGradient>
  </defs>
</svg> 