<svg width="200" height="60" viewBox="0 0 200 60" fill="none" xmlns="http://www.w3.org/2000/svg">
  <!-- Background shapes -->
  <rect width="200" height="60" rx="5" fill="none"/>
  
  <!-- Leaf icon -->
  <g transform="translate(15, 10)">
    <!-- Leaf shape -->
    <path d="M35 0C35 0 0 8 0 30C0 42 10 45 15 45C15 45 5 25 35 10V0Z" fill="#4CAF50"/>
    <path d="M35 0C35 0 70 8 70 30C70 42 60 45 55 45C55 45 65 25 35 10V0Z" fill="#2E7D32"/>
    
    <!-- Stem -->
    <rect x="32" y="10" width="6" height="35" rx="3" fill="#1B5E20"/>
    
    <!-- Carbon molecule representation -->
    <circle cx="35" cy="8" r="4" fill="white"/>
    <circle cx="24" cy="20" r="4" fill="white"/>
    <circle cx="46" cy="20" r="4" fill="white"/>
    
    <line x1="35" y1="8" x2="24" y2="20" stroke="white" stroke-width="2"/>
    <line x1="35" y1="8" x2="46" y2="20" stroke="white" stroke-width="2"/>
  </g>
  
  <!-- Text: CLEARBON -->
  <g transform="translate(95, 35)" fill="#333333">
    <text font-family="Arial, sans-serif" font-weight="bold" font-size="20" text-anchor="middle">
      CLEAR<tspan fill="#4CAF50">BON</tspan>
    </text>
  </g>
  
  <!-- Tagline -->
  <g transform="translate(95, 50)" fill="#757575">
    <text font-family="Arial, sans-serif" font-size="8" text-anchor="middle">
      Carbon Trading Made Clear
    </text>
  </g>
</svg> 