<svg width="800" height="400" viewBox="0 0 800 400" fill="none" xmlns="http://www.w3.org/2000/svg">
  <!-- Background -->
  <rect width="800" height="400" fill="#E8F5E9"/>
  
  <!-- Decorative elements -->
  <rect y="300" width="800" height="100" fill="#81C784" opacity="0.5"/>
  <path d="M0 300C100 280 200 310 300 290C400 270 500 300 600 280C700 260 800 290 800 290V300H0V300Z" fill="#4CAF50" opacity="0.3"/>
  
  <!-- Team members -->
  <!-- Person 1 -->
  <g transform="translate(100, 300)">
    <!-- Body -->
    <path d="M0 0C0 0 -20 -100 0 -150C20 -100 0 0 0 0Z" fill="#1976D2"/>
    <!-- Head -->
    <circle cx="0" cy="-170" r="30" fill="#FFE0B2"/>
    <!-- Face -->
    <circle cx="-10" cy="-175" r="3" fill="#424242"/>
    <circle cx="10" cy="-175" r="3" fill="#424242"/>
    <path d="M-10 -160C-10 -160 0 -155 10 -160" stroke="#424242" stroke-width="2" stroke-linecap="round"/>
    <!-- Hair -->
    <path d="M-30 -180C-30 -180 -20 -210 0 -210C20 -210 30 -180 30 -180" fill="#5D4037"/>
  </g>
  
  <!-- Person 2 -->
  <g transform="translate(230, 300)">
    <!-- Body -->
    <path d="M0 0C0 0 -25 -90 0 -140C25 -90 0 0 0 0Z" fill="#9C27B0"/>
    <!-- Head -->
    <circle cx="0" cy="-160" r="28" fill="#FFF8E1"/>
    <!-- Face -->
    <circle cx="-8" cy="-165" r="3" fill="#424242"/>
    <circle cx="8" cy="-165" r="3" fill="#424242"/>
    <path d="M-8 -150C-8 -150 0 -145 8 -150" stroke="#424242" stroke-width="2" stroke-linecap="round"/>
    <!-- Hair -->
    <ellipse cx="0" cy="-175" rx="28" ry="15" fill="#3E2723"/>
  </g>
  
  <!-- Person 3 -->
  <g transform="translate(360, 300)">
    <!-- Body -->
    <path d="M0 0C0 0 -30 -110 0 -160C30 -110 0 0 0 0Z" fill="#00897B"/>
    <!-- Head -->
    <circle cx="0" cy="-180" r="32" fill="#FFECB3"/>
    <!-- Face -->
    <circle cx="-10" cy="-185" r="3" fill="#424242"/>
    <circle cx="10" cy="-185" r="3" fill="#424242"/>
    <path d="M-10 -170C-10 -170 0 -165 10 -170" stroke="#424242" stroke-width="2" stroke-linecap="round"/>
    <!-- Hair -->
    <path d="M-32 -180C-32 -180 -20 -220 0 -220C20 -220 32 -180 32 -180" fill="#795548"/>
  </g>
  
  <!-- Person 4 -->
  <g transform="translate(490, 300)">
    <!-- Body -->
    <path d="M0 0C0 0 -25 -100 0 -150C25 -100 0 0 0 0Z" fill="#F44336"/>
    <!-- Head -->
    <circle cx="0" cy="-170" r="30" fill="#FFDBAC"/>
    <!-- Face -->
    <circle cx="-10" cy="-175" r="3" fill="#424242"/>
    <circle cx="10" cy="-175" r="3" fill="#424242"/>
    <path d="M-10 -160C-10 -160 0 -155 10 -160" stroke="#424242" stroke-width="2" stroke-linecap="round"/>
    <!-- Hair -->
    <rect x="-25" y="-205" width="50" height="30" rx="10" fill="#8D6E63"/>
  </g>
  
  <!-- Person 5 -->
  <g transform="translate(620, 300)">
    <!-- Body -->
    <path d="M0 0C0 0 -20 -90 0 -140C20 -90 0 0 0 0Z" fill="#673AB7"/>
    <!-- Head -->
    <circle cx="0" cy="-160" r="28" fill="#FFF3E0"/>
    <!-- Face -->
    <circle cx="-8" cy="-165" r="3" fill="#424242"/>
    <circle cx="8" cy="-165" r="3" fill="#424242"/>
    <path d="M-8 -150C-8 -150 0 -145 8 -150" stroke="#424242" stroke-width="2" stroke-linecap="round"/>
    <!-- Hair -->
    <path d="M-28 -160C-28 -160 -30 -190 0 -195C30 -190 28 -160 28 -160" fill="#4E342E"/>
  </g>
  
  <!-- Decorative plants -->
  <g transform="translate(50, 300)">
    <rect x="-2" y="-30" width="4" height="30" fill="#558B2F"/>
    <circle cx="0" cy="-40" r="10" fill="#7CB342"/>
  </g>
  
  <g transform="translate(700, 300)">
    <rect x="-2" y="-30" width="4" height="30" fill="#558B2F"/>
    <circle cx="0" cy="-40" r="10" fill="#7CB342"/>
  </g>
  
  <!-- Shadows -->
  <ellipse cx="100" cy="310" rx="40" ry="10" fill="#4CAF50" opacity="0.2"/>
  <ellipse cx="230" cy="310" rx="40" ry="10" fill="#4CAF50" opacity="0.2"/>
  <ellipse cx="360" cy="310" rx="40" ry="10" fill="#4CAF50" opacity="0.2"/>
  <ellipse cx="490" cy="310" rx="40" ry="10" fill="#4CAF50" opacity="0.2"/>
  <ellipse cx="620" cy="310" rx="40" ry="10" fill="#4CAF50" opacity="0.2"/>
  
  <!-- Title -->
  <rect x="200" y="50" width="400" height="60" rx="10" fill="#2E7D32" opacity="0.8"/>
  <text x="400" y="90" font-family="Arial" font-size="30" font-weight="bold" fill="white" text-anchor="middle">The Clearbon Team</text>
  
  <!-- Tagline -->
  <text x="400" y="130" font-family="Arial" font-size="18" fill="#1B5E20" text-anchor="middle">Working together towards a sustainable future</text>
</svg> 